Coordinates
version=1
nRows=32
nColumns=12
inDegrees=yes

Units are S.I. units (second, meters, Newtons, ...)
Angles are in degrees

endheader
time	SC_y	SC_z	SC_x	AC_y	AC_z	AC_x	GH_y	GH_z	GH_yy	EL_x	PS_y
       0.0               -24.4          1.049          15.26          33.39         -9.451         -10.76          125.9          30.11          57.59          40.69          152.5
   0.04179               -24.4          1.053          15.27          33.39         -9.452         -10.76          125.9           30.1          57.57           40.7          152.5
   0.08358               -24.4          1.057          15.27          33.39         -9.453         -10.76          125.9           30.1          57.55          40.72          152.5
    0.1254               -24.4          1.062          15.28           33.4         -9.454         -10.76          125.8           30.1          57.53          40.73          152.4
    0.1672               -24.4          1.067          15.28           33.4         -9.456         -10.76          125.8           30.1           57.5          40.75          152.4
    0.2089               -24.4          1.073          15.29           33.4         -9.457         -10.76          125.8           30.1          57.48          40.77          152.4
    0.2507              -24.39          1.079           15.3           33.4         -9.459         -10.75          125.8           30.1          57.45          40.78          152.4
    0.2925              -24.39          1.085           15.3           33.4          -9.46         -10.75          125.8           30.1          57.42           40.8          152.4
    0.3343              -24.39          1.091          15.31           33.4         -9.462         -10.75          125.7          30.09          57.39          40.83          152.4
    0.3761              -24.39          1.099          15.32           33.4         -9.464         -10.75          125.7          30.09          57.36          40.85          152.4
    0.4179              -24.38          1.106          15.33          33.41         -9.466         -10.74          125.7          30.09          57.33          40.87          152.4
    0.4597              -24.38          1.115          15.34          33.41         -9.468         -10.74          125.7          30.09          57.29           40.9          152.4
    0.5015              -24.38          1.123          15.35          33.41          -9.47         -10.74          125.6          30.09          57.25          40.93          152.3
    0.5433              -24.38          1.133          15.36          33.41         -9.473         -10.74          125.6          30.08           57.2          40.96          152.3
     0.585              -24.37          1.144          15.37          33.41         -9.475         -10.73          125.6          30.08          57.16          40.99          152.3
    0.6268              -24.37          1.155          15.39          33.42         -9.478         -10.73          125.5          30.08           57.1          41.03          152.3
    0.6686              -24.36          1.167           15.4          33.42         -9.481         -10.72          125.5          30.07          57.05          41.07          152.3
    0.7104              -24.36           1.18          15.42          33.42         -9.485         -10.72          125.4          30.07          56.99          41.11          152.2
    0.7522              -24.35          1.195          15.43          33.43         -9.489         -10.71          125.4          30.07          56.92          41.16          152.2
     0.794              -24.35          1.211          15.45          33.43         -9.493         -10.71          125.3          30.06          56.85          41.21          152.2
    0.8358              -24.34          1.229          15.47          33.43         -9.497          -10.7          125.3          30.06          56.77          41.27          152.2
    0.8776              -24.34          1.248          15.49          33.44         -9.502          -10.7          125.2          30.05          56.68          41.33          152.1
    0.9194              -24.33          1.269          15.52          33.44         -9.508         -10.69          125.2          30.05          56.58           41.4          152.1
    0.9611              -24.32          1.293          15.55          33.45         -9.514         -10.68          125.1          30.04          56.47          41.47          152.1
     1.003              -24.31          1.319          15.58          33.45          -9.52         -10.67          125.0          30.03          56.35          41.56          152.0
     1.045               -24.3          1.349          15.61          33.46         -9.528         -10.66          124.9          30.03          56.22          41.65          152.0
     1.087              -24.29          1.381          15.65          33.47         -9.536         -10.65          124.8          30.02          56.07          41.76          151.9
     1.128              -24.28          1.418          15.69          33.48         -9.546         -10.64          124.7          30.01           55.9          41.88          151.8
      1.17              -24.26           1.46          15.74          33.49         -9.557         -10.63          124.5           30.0          55.71          42.01          151.8
     1.212              -24.25          1.508           15.8           33.5         -9.569         -10.61          124.4          29.99          55.49          42.17          151.7
     1.254              -24.23          1.562          15.86          33.51         -9.583         -10.59          124.2          29.97          55.25          42.34          151.6
     1.295              -24.21          1.624          15.93          33.52         -9.599         -10.57          124.0          29.95          54.96          42.54          151.5
